<?xml version="1.0" encoding="UTF-8" standalone="no"?>
<!DOCTYPE svg PUBLIC "-//W3C//DTD SVG 1.1//EN"
 "http://www.w3.org/Graphics/SVG/1.1/DTD/svg11.dtd">
<!-- Generated by graphviz version 14.0.4 (20251115.1723)
 -->
<!-- Title: G Pages: 1 -->
<svg width="243pt" height="502pt"
 viewBox="0.00 0.00 243.00 502.00" xmlns="http://www.w3.org/2000/svg" xmlns:xlink="http://www.w3.org/1999/xlink">
<g id="graph0" class="graph" transform="scale(1 1) rotate(0) translate(4 498.23)">
<title>G</title><style>.edge>path:hover{stroke-width:8}</style>
<polygon fill="white" stroke="none" points="-4,4 -4,-498.23 239.25,-498.23 239.25,4 -4,4"/>
<!-- app_api -->
<g id="node1" class="node">
<title>app_api</title><style>.edge>path:hover{stroke-width:8}</style>
<ellipse fill="#ce3b3b" stroke="black" cx="76.25" cy="-90" rx="28.56" ry="18"/>
<text xml:space="preserve" text-anchor="middle" x="76.25" y="-86.5" font-family="Helvetica,sans-Serif" font-size="10.00" fill="#ffffff">app.api</text>
</g>
<!-- app_main -->
<g id="node5" class="node">
<title>app_main</title><style>.edge>path:hover{stroke-width:8}</style>
<ellipse fill="#883a3a" stroke="black" cx="104.25" cy="-18" rx="33.52" ry="18"/>
<text xml:space="preserve" text-anchor="middle" x="104.25" y="-14.5" font-family="Helvetica,sans-Serif" font-size="10.00" fill="#ffffff">app.main</text>
</g>
<!-- app_api&#45;&gt;app_main -->
<g id="edge1" class="edge">
<title>app_api&#45;&gt;app_main</title><style>.edge>path:hover{stroke-width:8}</style>
<path fill="none" stroke="black" d="M83.03,-72.05C86.12,-64.32 89.87,-54.96 93.34,-46.27"/>
<polygon fill="#ce3b3b" stroke="black" points="96.51,-47.78 96.97,-37.19 90.01,-45.18 96.51,-47.78"/>
</g>
<!-- app_api_routes -->
<g id="node2" class="node">
<title>app_api_routes</title><style>.edge>path:hover{stroke-width:8}</style>
<ellipse fill="#a13535" stroke="black" cx="133.25" cy="-162" rx="46.6" ry="18"/>
<text xml:space="preserve" text-anchor="middle" x="133.25" y="-158.5" font-family="Helvetica,sans-Serif" font-size="10.00" fill="#ffffff">app.api.routes</text>
</g>
<!-- app_api_routes&#45;&gt;app_main -->
<g id="edge2" class="edge">
<title>app_api_routes&#45;&gt;app_main</title><style>.edge>path:hover{stroke-width:8}</style>
<path fill="none" stroke="black" d="M135.08,-143.56C136.14,-129.29 136.67,-108.66 133.25,-91"/>
</g>
<!-- app_api_schemas -->
<g id="node3" class="node">
<title>app_api_schemas</title><style>.edge>path:hover{stroke-width:8}</style>
<ellipse fill="#c04040" stroke="black" cx="133.25" cy="-247.11" rx="39.42" ry="31.11"/>
<text xml:space="preserve" text-anchor="middle" x="133.25" y="-255.61" font-family="Helvetica,sans-Serif" font-size="10.00" fill="#ffffff">app.</text>
<text xml:space="preserve" text-anchor="middle" x="133.25" y="-243.61" font-family="Helvetica,sans-Serif" font-size="10.00" fill="#ffffff">api.</text>
<text xml:space="preserve" text-anchor="middle" x="133.25" y="-231.61" font-family="Helvetica,sans-Serif" font-size="10.00" fill="#ffffff">schemas</text>
</g>
<!-- app_api_schemas&#45;&gt;app_api_routes -->
<g id="edge3" class="edge">
<title>app_api_schemas&#45;&gt;app_api_routes</title><style>.edge>path:hover{stroke-width:8}</style>
<path fill="none" stroke="black" d="M133.25,-215.64C133.25,-207.85 133.25,-199.51 133.25,-191.81"/>
<polygon fill="#c04040" stroke="black" points="136.75,-191.94 133.25,-181.94 129.75,-191.94 136.75,-191.94"/>
</g>
<!-- app_config -->
<g id="node4" class="node">
<title>app_config</title><style>.edge>path:hover{stroke-width:8}</style>
<ellipse fill="#cc3333" stroke="black" cx="54.25" cy="-332.23" rx="36.68" ry="18"/>
<text xml:space="preserve" text-anchor="middle" x="54.25" y="-328.73" font-family="Helvetica,sans-Serif" font-size="10.00" fill="#ffffff">app.config</text>
</g>
<!-- app_config&#45;&gt;app_api_routes -->
<g id="edge4" class="edge">
<title>app_config&#45;&gt;app_api_routes</title><style>.edge>path:hover{stroke-width:8}</style>
<path fill="none" stroke="black" d="M58.25,-246.11C64.12,-221.14 83.88,-199.82 101.64,-185.03"/>
<polygon fill="#cc3333" stroke="black" points="103.79,-187.79 109.47,-178.85 99.45,-182.3 103.79,-187.79"/>
</g>
<!-- app_config&#45;&gt;app_main -->
<g id="edge5" class="edge">
<title>app_config&#45;&gt;app_main</title><style>.edge>path:hover{stroke-width:8}</style>
<path fill="none" stroke="black" d="M53.26,-313.78C52.73,-296.78 53.02,-270.33 58.25,-248.11"/>
<path fill="none" stroke="black" d="M58.25,-246.11C68.82,-201.18 55.18,-184.55 77.25,-144 93.63,-113.9 139.77,-124.64 133.25,-91"/>
<path fill="none" stroke="black" d="M133.25,-89C129.95,-74.31 123.8,-58.76 118.01,-46.06"/>
<polygon fill="#cc3333" stroke="black" points="121.21,-44.62 113.75,-37.09 114.88,-47.62 121.21,-44.62"/>
</g>
<!-- fastapi -->
<g id="node6" class="node">
<title>fastapi</title><style>.edge>path:hover{stroke-width:8}</style>
<polygon fill="#85c247" stroke="black" points="235.25,-422.23 232.25,-426.23 211.25,-426.23 208.25,-422.23 181.25,-422.23 181.25,-386.23 235.25,-386.23 235.25,-422.23"/>
<text xml:space="preserve" text-anchor="middle" x="208.25" y="-400.73" font-family="Helvetica,sans-Serif" font-size="10.00" fill="#000000">fastapi</text>
</g>
<!-- fastapi&#45;&gt;app_api_routes -->
<g id="edge6" class="edge">
<title>fastapi&#45;&gt;app_api_routes</title><style>.edge>path:hover{stroke-width:8}</style>
<path fill="none" stroke="black" d="M210.56,-385.77C213.89,-356.8 218.57,-297.13 208.25,-248.11"/>
<path fill="none" stroke="black" d="M208.25,-246.11C202.1,-221.21 182.35,-199.89 164.66,-185.08"/>
<polygon fill="#85c247" stroke="black" points="166.88,-182.37 156.87,-178.89 162.52,-187.85 166.88,-182.37"/>
</g>
<!-- fastapi&#45;&gt;app_main -->
<g id="edge7" class="edge">
<title>fastapi&#45;&gt;app_main</title><style>.edge>path:hover{stroke-width:8}</style>
<path fill="none" stroke="black" d="M208.25,-246.11C197.18,-201.3 211.32,-184.55 189.25,-144 172.87,-113.9 140.76,-124.44 133.25,-91"/>
</g>
<!-- pydantic -->
<g id="node7" class="node">
<title>pydantic</title><style>.edge>path:hover{stroke-width:8}</style>
<polygon fill="#40bfc0" stroke="black" points="164.25,-494.23 161.25,-498.23 140.25,-498.23 137.25,-494.23 110.25,-494.23 110.25,-458.23 164.25,-458.23 164.25,-494.23"/>
<text xml:space="preserve" text-anchor="middle" x="137.25" y="-472.73" font-family="Helvetica,sans-Serif" font-size="10.00" fill="#000000">pydantic</text>
</g>
<!-- pydantic&#45;&gt;app_api_schemas -->
<g id="edge8" class="edge">
<title>pydantic&#45;&gt;app_api_schemas</title><style>.edge>path:hover{stroke-width:8}</style>
<path fill="none" stroke="black" d="M136.94,-457.78C136.32,-422.2 134.88,-340.38 133.99,-290.12"/>
<polygon fill="#40bfc0" stroke="black" points="137.49,-290.13 133.82,-280.19 130.49,-290.25 137.49,-290.13"/>
</g>
<!-- pydantic_settings -->
<g id="node8" class="node">
<title>pydantic_settings</title><style>.edge>path:hover{stroke-width:8}</style>
<polygon fill="#8553b6" stroke="black" points="92.5,-494.23 89.5,-498.23 68.5,-498.23 65.5,-494.23 0,-494.23 0,-458.23 92.5,-458.23 92.5,-494.23"/>
<text xml:space="preserve" text-anchor="middle" x="46.25" y="-472.73" font-family="Helvetica,sans-Serif" font-size="10.00" fill="#ffffff">pydantic_settings</text>
</g>
<!-- pydantic_settings&#45;&gt;app_config -->
<g id="edge9" class="edge">
<title>pydantic_settings&#45;&gt;app_config</title><style>.edge>path:hover{stroke-width:8}</style>
<path fill="none" stroke="black" d="M47.23,-457.81C48.58,-433.84 51.03,-390.37 52.65,-361.64"/>
<polygon fill="#8553b6" stroke="black" points="56.13,-362.03 53.2,-351.85 49.14,-361.63 56.13,-362.03"/>
</g>
</g>
</svg>
