<?xml version="1.0" encoding="UTF-8" standalone="no"?>
<!DOCTYPE svg PUBLIC "-//W3C//DTD SVG 1.1//EN"
 "http://www.w3.org/Graphics/SVG/1.1/DTD/svg11.dtd">
<!-- Generated by graphviz version 14.0.4 (20251115.1723)
 -->
<!-- Title: G Pages: 1 -->
<svg width="299pt" height="234pt"
 viewBox="0.00 0.00 299.00 234.00" xmlns="http://www.w3.org/2000/svg" xmlns:xlink="http://www.w3.org/1999/xlink">
<g id="graph0" class="graph" transform="scale(1 1) rotate(0) translate(4 230.25)">
<title>G</title><style>.edge>path:hover{stroke-width:8}</style>
<polygon fill="white" stroke="none" points="-4,4 -4,-230.25 295.27,-230.25 295.27,4 -4,4"/>
<!-- pandas -->
<g id="node1" class="node">
<title>pandas</title><style>.edge>path:hover{stroke-width:8}</style>
<polygon fill="blue" stroke="black" points="73.85,-226.25 70.85,-230.25 49.85,-230.25 46.85,-226.25 19.85,-226.25 19.85,-190.25 73.85,-190.25 73.85,-226.25"/>
<text xml:space="preserve" text-anchor="middle" x="46.85" y="-204.75" font-family="Helvetica,sans-Serif" font-size="10.00" fill="white">pandas</text>
</g>
<!-- services_data_loader -->
<g id="node4" class="node">
<title>services_data_loader</title><style>.edge>path:hover{stroke-width:8}</style>
<ellipse fill="#40bfc0" stroke="black" cx="46.85" cy="-94.63" rx="46.85" ry="22.63"/>
<text xml:space="preserve" text-anchor="middle" x="46.85" y="-97.13" font-family="Helvetica,sans-Serif" font-size="10.00" fill="#000000">services.</text>
<text xml:space="preserve" text-anchor="middle" x="46.85" y="-85.13" font-family="Helvetica,sans-Serif" font-size="10.00" fill="#000000">data_loader</text>
</g>
<!-- pandas&#45;&gt;services_data_loader -->
<g id="edge1" class="edge">
<title>pandas&#45;&gt;services_data_loader</title><style>.edge>path:hover{stroke-width:8}</style>
<path fill="none" stroke="black" d="M46.85,-189.81C46.85,-173.59 46.85,-148.98 46.85,-128.99"/>
<polygon fill="blue" stroke="black" points="50.35,-129.06 46.85,-119.06 43.35,-129.06 50.35,-129.06"/>
</g>
<!-- services -->
<g id="node2" class="node">
<title>services</title><style>.edge>path:hover{stroke-width:8}</style>
<ellipse fill="#38a8a8" stroke="black" cx="152.85" cy="-18" rx="31.72" ry="18"/>
<text xml:space="preserve" text-anchor="middle" x="152.85" y="-14.5" font-family="Helvetica,sans-Serif" font-size="10.00" fill="#000000">services</text>
</g>
<!-- services_composer -->
<g id="node3" class="node">
<title>services_composer</title><style>.edge>path:hover{stroke-width:8}</style>
<ellipse fill="#47c2c2" stroke="black" cx="152.85" cy="-94.63" rx="41.54" ry="22.63"/>
<text xml:space="preserve" text-anchor="middle" x="152.85" y="-97.13" font-family="Helvetica,sans-Serif" font-size="10.00" fill="#000000">services.</text>
<text xml:space="preserve" text-anchor="middle" x="152.85" y="-85.13" font-family="Helvetica,sans-Serif" font-size="10.00" fill="#000000">composer</text>
</g>
<!-- services_composer&#45;&gt;services -->
<g id="edge2" class="edge">
<title>services_composer&#45;&gt;services</title><style>.edge>path:hover{stroke-width:8}</style>
<path fill="none" stroke="black" d="M152.85,-71.64C152.85,-64.1 152.85,-55.56 152.85,-47.57"/>
<polygon fill="#47c2c2" stroke="black" points="156.35,-47.61 152.85,-37.61 149.35,-47.61 156.35,-47.61"/>
</g>
<!-- services_data_loader&#45;&gt;services -->
<g id="edge3" class="edge">
<title>services_data_loader&#45;&gt;services</title><style>.edge>path:hover{stroke-width:8}</style>
<path fill="none" stroke="black" d="M72.78,-75.37C88.31,-64.44 108.08,-50.52 124.09,-39.25"/>
<polygon fill="#40bfc0" stroke="black" points="126.1,-42.11 132.26,-33.49 122.07,-36.39 126.1,-42.11"/>
</g>
<!-- services_inference -->
<g id="node5" class="node">
<title>services_inference</title><style>.edge>path:hover{stroke-width:8}</style>
<ellipse fill="#47c2c2" stroke="black" cx="251.85" cy="-94.63" rx="39.42" ry="22.63"/>
<text xml:space="preserve" text-anchor="middle" x="251.85" y="-97.13" font-family="Helvetica,sans-Serif" font-size="10.00" fill="#000000">services.</text>
<text xml:space="preserve" text-anchor="middle" x="251.85" y="-85.13" font-family="Helvetica,sans-Serif" font-size="10.00" fill="#000000">inference</text>
</g>
<!-- services_inference&#45;&gt;services -->
<g id="edge4" class="edge">
<title>services_inference&#45;&gt;services</title><style>.edge>path:hover{stroke-width:8}</style>
<path fill="none" stroke="black" d="M228.38,-75.94C213.99,-65.09 195.49,-51.14 180.4,-39.77"/>
<polygon fill="#47c2c2" stroke="black" points="182.81,-37.21 172.72,-33.98 178.6,-42.8 182.81,-37.21"/>
</g>
</g>
</svg>
