<?xml version="1.0" encoding="UTF-8" standalone="no"?>
<!DOCTYPE svg PUBLIC "-//W3C//DTD SVG 1.1//EN"
 "http://www.w3.org/Graphics/SVG/1.1/DTD/svg11.dtd">
<!-- Generated by graphviz version 14.0.4 (20251115.1723)
 -->
<!-- Title: G Pages: 1 -->
<svg width="299pt" height="125pt"
 viewBox="0.00 0.00 299.00 125.00" xmlns="http://www.w3.org/2000/svg" xmlns:xlink="http://www.w3.org/1999/xlink">
<g id="graph0" class="graph" transform="scale(1 1) rotate(0) translate(4 121.25)">
<title>G</title><style>.edge>path:hover{stroke-width:8}</style>
<polygon fill="white" stroke="none" points="-4,4 -4,-121.25 294.96,-121.25 294.96,4 -4,4"/>
<!-- services -->
<g id="node1" class="node">
<title>services</title><style>.edge>path:hover{stroke-width:8}</style>
<ellipse fill="#a83838" stroke="black" cx="147.54" cy="-18" rx="31.72" ry="18"/>
<text xml:space="preserve" text-anchor="middle" x="147.54" y="-14.5" font-family="Helvetica,sans-Serif" font-size="10.00" fill="#ffffff">services</text>
</g>
<!-- services_composer -->
<g id="node2" class="node">
<title>services_composer</title><style>.edge>path:hover{stroke-width:8}</style>
<ellipse fill="#c24747" stroke="black" cx="41.54" cy="-94.63" rx="41.54" ry="22.63"/>
<text xml:space="preserve" text-anchor="middle" x="41.54" y="-97.13" font-family="Helvetica,sans-Serif" font-size="10.00" fill="#ffffff">services.</text>
<text xml:space="preserve" text-anchor="middle" x="41.54" y="-85.13" font-family="Helvetica,sans-Serif" font-size="10.00" fill="#ffffff">composer</text>
</g>
<!-- services_composer&#45;&gt;services -->
<g id="edge1" class="edge">
<title>services_composer&#45;&gt;services</title><style>.edge>path:hover{stroke-width:8}</style>
<path fill="none" stroke="black" d="M66.39,-76.13C82.15,-65.04 102.58,-50.66 119,-39.1"/>
<polygon fill="#c24747" stroke="black" points="120.74,-42.15 126.9,-33.53 116.71,-36.43 120.74,-42.15"/>
</g>
<!-- services_data_loader -->
<g id="node3" class="node">
<title>services_data_loader</title><style>.edge>path:hover{stroke-width:8}</style>
<ellipse fill="#c24747" stroke="black" cx="147.54" cy="-94.63" rx="46.85" ry="22.63"/>
<text xml:space="preserve" text-anchor="middle" x="147.54" y="-97.13" font-family="Helvetica,sans-Serif" font-size="10.00" fill="#ffffff">services.</text>
<text xml:space="preserve" text-anchor="middle" x="147.54" y="-85.13" font-family="Helvetica,sans-Serif" font-size="10.00" fill="#ffffff">data_loader</text>
</g>
<!-- services_data_loader&#45;&gt;services -->
<g id="edge2" class="edge">
<title>services_data_loader&#45;&gt;services</title><style>.edge>path:hover{stroke-width:8}</style>
<path fill="none" stroke="black" d="M147.54,-71.64C147.54,-64.1 147.54,-55.56 147.54,-47.57"/>
<polygon fill="#c24747" stroke="black" points="151.04,-47.61 147.54,-37.61 144.04,-47.61 151.04,-47.61"/>
</g>
<!-- services_inference -->
<g id="node4" class="node">
<title>services_inference</title><style>.edge>path:hover{stroke-width:8}</style>
<ellipse fill="#c24747" stroke="black" cx="251.54" cy="-94.63" rx="39.42" ry="22.63"/>
<text xml:space="preserve" text-anchor="middle" x="251.54" y="-97.13" font-family="Helvetica,sans-Serif" font-size="10.00" fill="#ffffff">services.</text>
<text xml:space="preserve" text-anchor="middle" x="251.54" y="-85.13" font-family="Helvetica,sans-Serif" font-size="10.00" fill="#ffffff">inference</text>
</g>
<!-- services_inference&#45;&gt;services -->
<g id="edge3" class="edge">
<title>services_inference&#45;&gt;services</title><style>.edge>path:hover{stroke-width:8}</style>
<path fill="none" stroke="black" d="M227.42,-76.32C211.97,-65.23 191.86,-50.8 175.68,-39.19"/>
<polygon fill="#c24747" stroke="black" points="178.07,-36.6 167.91,-33.61 173.99,-42.29 178.07,-36.6"/>
</g>
</g>
</svg>
