<?xml version="1.0" encoding="UTF-8" standalone="no"?>
<!DOCTYPE svg PUBLIC "-//W3C//DTD SVG 1.1//EN"
 "http://www.w3.org/Graphics/SVG/1.1/DTD/svg11.dtd">
<!-- Generated by graphviz version 14.1.4 (20260321.0153)
 -->
<!-- Title: inference&#45;chain Pages: 1 -->
<svg width="388pt" height="899pt"
 viewBox="0.00 0.00 388.00 899.00" xmlns="http://www.w3.org/2000/svg" xmlns:xlink="http://www.w3.org/1999/xlink">
<g id="graph0" class="graph" transform="scale(1 1) rotate(0) translate(36 862.65)">
<title>inference&#45;chain</title>
<text xml:space="preserve" text-anchor="middle" x="158.09" y="-811.25" font-family="Helvetica,sans-Serif" font-size="12.00">Production Inference Chain — Alice Engine</text>
<g id="clust1" class="cluster">
<title>cluster_pred</title>
<polygon fill="none" stroke="#aaaaaa" stroke-dasharray="5,2" points="106.65,-337.6 106.65,-417.25 252.65,-417.25 252.65,-337.6 106.65,-337.6"/>
<text xml:space="preserve" text-anchor="middle" x="179.65" y="-401.85" font-family="Helvetica,sans-Serif" font-size="12.00">Modele CatBoost (RAM)</text>
</g>
<!-- api_req -->
<g id="node1" class="node">
<title>api_req</title>
<path fill="#f0f0f0" stroke="black" d="M169.8,-804.4C169.8,-804.4 25.5,-804.4 25.5,-804.4 19.5,-804.4 13.5,-798.4 13.5,-792.4 13.5,-792.4 13.5,-761.5 13.5,-761.5 13.5,-755.5 19.5,-749.5 25.5,-749.5 25.5,-749.5 169.8,-749.5 169.8,-749.5 175.8,-749.5 181.8,-755.5 181.8,-761.5 181.8,-761.5 181.8,-792.4 181.8,-792.4 181.8,-798.4 175.8,-804.4 169.8,-804.4"/>
<text xml:space="preserve" text-anchor="middle" x="97.65" y="-786.75" font-family="Helvetica,sans-Serif" font-size="11.00">API Request</text>
<text xml:space="preserve" text-anchor="middle" x="97.65" y="-773.25" font-family="Helvetica,sans-Serif" font-size="11.00">POST /api/v1/predict</text>
<text xml:space="preserve" text-anchor="middle" x="97.65" y="-759.75" font-family="Helvetica,sans-Serif" font-size="11.00">(joueur, adversaire, contexte)</text>
</g>
<!-- feat_store -->
<g id="node2" class="node">
<title>feat_store</title>
<path fill="#e8f4fd" stroke="black" d="M153.3,-511C153.3,-513.86 118.94,-516.17 76.65,-516.17 34.36,-516.17 0,-513.86 0,-511 0,-511 0,-464.42 0,-464.42 0,-461.57 34.36,-459.25 76.65,-459.25 118.94,-459.25 153.3,-461.57 153.3,-464.42 153.3,-464.42 153.3,-511 153.3,-511"/>
<path fill="none" stroke="black" d="M153.3,-511C153.3,-508.14 118.94,-505.82 76.65,-505.82 34.36,-505.82 0,-508.14 0,-511"/>
<text xml:space="preserve" text-anchor="middle" x="76.65" y="-490.76" font-family="Helvetica,sans-Serif" font-size="11.00">Feature Store</text>
<text xml:space="preserve" text-anchor="middle" x="76.65" y="-477.26" font-family="Helvetica,sans-Serif" font-size="11.00">(joueur + equipe features)</text>
</g>
<!-- api_req&#45;&gt;feat_store -->
<g id="edge1" class="edge">
<title>api_req&#45;&gt;feat_store</title>
<path fill="none" stroke="black" d="M95.69,-749.19C91.97,-698.24 83.85,-587.13 79.51,-527.84"/>
<polygon fill="black" stroke="black" points="83,-527.58 78.78,-517.86 76.02,-528.09 83,-527.58"/>
</g>
<!-- elo_baseline -->
<g id="node3" class="node">
<title>elo_baseline</title>
<path fill="#e8fde8" stroke="black" d="M222.05,-704.5C222.05,-704.5 157.25,-704.5 157.25,-704.5 151.25,-704.5 145.25,-698.5 145.25,-692.5 145.25,-692.5 145.25,-675.1 145.25,-675.1 145.25,-669.1 151.25,-663.1 157.25,-663.1 157.25,-663.1 222.05,-663.1 222.05,-663.1 228.05,-663.1 234.05,-669.1 234.05,-675.1 234.05,-675.1 234.05,-692.5 234.05,-692.5 234.05,-698.5 228.05,-704.5 222.05,-704.5"/>
<text xml:space="preserve" text-anchor="middle" x="189.65" y="-686.85" font-family="Helvetica,sans-Serif" font-size="11.00">Elo Baseline</text>
<text xml:space="preserve" text-anchor="middle" x="189.65" y="-673.35" font-family="Helvetica,sans-Serif" font-size="11.00">baselines.py</text>
</g>
<!-- api_req&#45;&gt;elo_baseline -->
<g id="edge2" class="edge">
<title>api_req&#45;&gt;elo_baseline</title>
<path fill="none" stroke="black" d="M124.76,-749.09C136.27,-737.69 149.7,-724.38 161.34,-712.85"/>
<polygon fill="black" stroke="black" points="163.74,-715.4 168.38,-705.88 158.81,-710.43 163.74,-715.4"/>
</g>
<!-- predict -->
<g id="node6" class="node">
<title>predict</title>
<path fill="#fde8d0" stroke="black" d="M224.43,-387C224.43,-387 134.88,-387 134.88,-387 128.88,-387 122.88,-381 122.88,-375 122.88,-375 122.88,-357.6 122.88,-357.6 122.88,-351.6 128.88,-345.6 134.88,-345.6 134.88,-345.6 224.43,-345.6 224.43,-345.6 230.43,-345.6 236.43,-351.6 236.43,-357.6 236.43,-357.6 236.43,-375 236.43,-375 236.43,-381 230.43,-387 224.43,-387"/>
<text xml:space="preserve" text-anchor="middle" x="179.65" y="-369.35" font-family="Helvetica,sans-Serif" font-size="11.00">predict_with_init()</text>
<text xml:space="preserve" text-anchor="middle" x="179.65" y="-355.85" font-family="Helvetica,sans-Serif" font-size="11.00">predict_proba</text>
</g>
<!-- feat_store&#45;&gt;predict -->
<g id="edge6" class="edge">
<title>feat_store&#45;&gt;predict</title>
<path fill="none" stroke="black" d="M100.54,-459.02C116.85,-440.1 138.42,-415.1 154.91,-395.98"/>
<polygon fill="black" stroke="black" points="157.45,-398.39 161.33,-388.53 152.15,-393.82 157.45,-398.39"/>
</g>
<!-- draw_lookup2 -->
<g id="node4" class="node">
<title>draw_lookup2</title>
<path fill="#e8f4fd" stroke="black" d="M247.18,-612.92C247.18,-615.78 221.39,-618.1 189.65,-618.1 157.91,-618.1 132.12,-615.78 132.12,-612.92 132.12,-612.92 132.12,-566.35 132.12,-566.35 132.12,-563.49 157.91,-561.17 189.65,-561.17 221.39,-561.17 247.18,-563.49 247.18,-566.35 247.18,-566.35 247.18,-612.92 247.18,-612.92"/>
<path fill="none" stroke="black" d="M247.18,-612.92C247.18,-610.07 221.39,-607.75 189.65,-607.75 157.91,-607.75 132.12,-610.07 132.12,-612.92"/>
<text xml:space="preserve" text-anchor="middle" x="189.65" y="-592.69" font-family="Helvetica,sans-Serif" font-size="11.00">draw_rate_lookup</text>
<text xml:space="preserve" text-anchor="middle" x="189.65" y="-579.19" font-family="Helvetica,sans-Serif" font-size="11.00">.parquet</text>
</g>
<!-- elo_baseline&#45;&gt;draw_lookup2 -->
<g id="edge3" class="edge">
<title>elo_baseline&#45;&gt;draw_lookup2</title>
<path fill="none" stroke="black" d="M189.65,-662.8C189.65,-653.03 189.65,-640.94 189.65,-629.45"/>
<polygon fill="black" stroke="black" points="193.15,-629.8 189.65,-619.8 186.15,-629.8 193.15,-629.8"/>
</g>
<!-- init_scores2 -->
<g id="node5" class="node">
<title>init_scores2</title>
<path fill="#e8fde8" stroke="black" d="M304.18,-508.41C304.18,-508.41 201.12,-508.41 201.12,-508.41 195.12,-508.41 189.12,-502.41 189.12,-496.41 189.12,-496.41 189.12,-479.01 189.12,-479.01 189.12,-473.01 195.12,-467.01 201.12,-467.01 201.12,-467.01 304.18,-467.01 304.18,-467.01 310.18,-467.01 316.18,-473.01 316.18,-479.01 316.18,-479.01 316.18,-496.41 316.18,-496.41 316.18,-502.41 310.18,-508.41 304.18,-508.41"/>
<text xml:space="preserve" text-anchor="middle" x="252.65" y="-490.76" font-family="Helvetica,sans-Serif" font-size="11.00">init_scores</text>
<text xml:space="preserve" text-anchor="middle" x="252.65" y="-477.26" font-family="Helvetica,sans-Serif" font-size="11.00">(log&#45;odds par board)</text>
</g>
<!-- elo_baseline&#45;&gt;init_scores2 -->
<g id="edge4" class="edge">
<title>elo_baseline&#45;&gt;init_scores2</title>
<path fill="none" stroke="black" d="M224.62,-662.85C240.26,-651.86 257.07,-636.66 265.65,-618.1 280.15,-586.72 272.65,-546.59 264.28,-519.4"/>
<polygon fill="black" stroke="black" points="267.65,-518.43 261.18,-510.04 261.01,-520.63 267.65,-518.43"/>
</g>
<!-- draw_lookup2&#45;&gt;init_scores2 -->
<g id="edge5" class="edge">
<title>draw_lookup2&#45;&gt;init_scores2</title>
<path fill="none" stroke="black" d="M207.2,-560.8C215.5,-547.64 225.41,-531.91 233.86,-518.51"/>
<polygon fill="black" stroke="black" points="236.81,-520.4 239.18,-510.08 230.89,-516.67 236.81,-520.4"/>
</g>
<!-- init_scores2&#45;&gt;predict -->
<g id="edge11" class="edge">
<title>init_scores2&#45;&gt;predict</title>
<path fill="none" stroke="black" d="M240.43,-466.73C228.8,-447.7 211.14,-418.82 197.85,-397.08"/>
<polygon fill="black" stroke="black" points="200.9,-395.35 192.7,-388.64 194.93,-399 200.9,-395.35"/>
<text xml:space="preserve" text-anchor="middle" x="248.27" y="-427.75" font-family="Helvetica,sans-Serif" font-size="10.00">base_margin</text>
</g>
<!-- calib2 -->
<g id="node7" class="node">
<title>calib2</title>
<path fill="#e8fde8" stroke="black" d="M219.93,-300.6C219.93,-300.6 139.38,-300.6 139.38,-300.6 133.38,-300.6 127.38,-294.6 127.38,-288.6 127.38,-288.6 127.38,-271.2 127.38,-271.2 127.38,-265.2 133.38,-259.2 139.38,-259.2 139.38,-259.2 219.93,-259.2 219.93,-259.2 225.93,-259.2 231.93,-265.2 231.93,-271.2 231.93,-271.2 231.93,-288.6 231.93,-288.6 231.93,-294.6 225.93,-300.6 219.93,-300.6"/>
<text xml:space="preserve" text-anchor="middle" x="179.65" y="-282.95" font-family="Helvetica,sans-Serif" font-size="11.00">Calibration</text>
<text xml:space="preserve" text-anchor="middle" x="179.65" y="-269.45" font-family="Helvetica,sans-Serif" font-size="11.00">Isotonic / classe</text>
</g>
<!-- predict&#45;&gt;calib2 -->
<g id="edge7" class="edge">
<title>predict&#45;&gt;calib2</title>
<path fill="none" stroke="black" d="M179.65,-345.3C179.65,-335.49 179.65,-323.44 179.65,-312.44"/>
<polygon fill="black" stroke="black" points="183.15,-312.56 179.65,-302.56 176.15,-312.56 183.15,-312.56"/>
</g>
<!-- proba -->
<g id="node8" class="node">
<title>proba</title>
<path fill="#f0e8fd" stroke="black" d="M247.3,-214.2C247.3,-214.2 112,-214.2 112,-214.2 106,-214.2 100,-208.2 100,-202.2 100,-202.2 100,-184.8 100,-184.8 100,-178.8 106,-172.8 112,-172.8 112,-172.8 247.3,-172.8 247.3,-172.8 253.3,-172.8 259.3,-178.8 259.3,-184.8 259.3,-184.8 259.3,-202.2 259.3,-202.2 259.3,-208.2 253.3,-214.2 247.3,-214.2"/>
<text xml:space="preserve" text-anchor="middle" x="179.65" y="-196.55" font-family="Helvetica,sans-Serif" font-size="11.00">P(Win) / P(Draw) / P(Loss)</text>
<text xml:space="preserve" text-anchor="middle" x="179.65" y="-183.05" font-family="Helvetica,sans-Serif" font-size="11.00">par board</text>
</g>
<!-- calib2&#45;&gt;proba -->
<g id="edge8" class="edge">
<title>calib2&#45;&gt;proba</title>
<path fill="none" stroke="black" d="M179.65,-258.9C179.65,-249.09 179.65,-237.04 179.65,-226.04"/>
<polygon fill="black" stroke="black" points="183.15,-226.16 179.65,-216.16 176.15,-226.16 183.15,-226.16"/>
</g>
<!-- ce -->
<g id="node9" class="node">
<title>ce</title>
<path fill="#e8fde8" stroke="black" d="M259.68,-127.8C259.68,-127.8 99.62,-127.8 99.62,-127.8 93.62,-127.8 87.62,-121.8 87.62,-115.8 87.62,-115.8 87.62,-98.4 87.62,-98.4 87.62,-92.4 93.62,-86.4 99.62,-86.4 99.62,-86.4 259.68,-86.4 259.68,-86.4 265.68,-86.4 271.68,-92.4 271.68,-98.4 271.68,-98.4 271.68,-115.8 271.68,-115.8 271.68,-121.8 265.68,-127.8 259.68,-127.8"/>
<text xml:space="preserve" text-anchor="middle" x="179.65" y="-110.15" font-family="Helvetica,sans-Serif" font-size="11.00">CE Optimizer</text>
<text xml:space="preserve" text-anchor="middle" x="179.65" y="-96.65" font-family="Helvetica,sans-Serif" font-size="11.00">E[score] = P(win) + 0.5*P(draw)</text>
</g>
<!-- proba&#45;&gt;ce -->
<g id="edge9" class="edge">
<title>proba&#45;&gt;ce</title>
<path fill="none" stroke="black" d="M179.65,-172.5C179.65,-162.69 179.65,-150.64 179.65,-139.64"/>
<polygon fill="black" stroke="black" points="183.15,-139.76 179.65,-129.76 176.15,-139.76 183.15,-139.76"/>
</g>
<!-- compo -->
<g id="node10" class="node">
<title>compo</title>
<path fill="#f0e8fd" stroke="black" d="M252.55,-41.4C252.55,-41.4 106.75,-41.4 106.75,-41.4 100.75,-41.4 94.75,-35.4 94.75,-29.4 94.75,-29.4 94.75,-12 94.75,-12 94.75,-6 100.75,0 106.75,0 106.75,0 252.55,0 252.55,0 258.55,0 264.55,-6 264.55,-12 264.55,-12 264.55,-29.4 264.55,-29.4 264.55,-35.4 258.55,-41.4 252.55,-41.4"/>
<text xml:space="preserve" text-anchor="middle" x="179.65" y="-23.75" font-family="Helvetica,sans-Serif" font-size="11.00">Composition</text>
<text xml:space="preserve" text-anchor="middle" x="179.65" y="-10.25" font-family="Helvetica,sans-Serif" font-size="11.00">Recommandee + alternatives</text>
</g>
<!-- ce&#45;&gt;compo -->
<g id="edge10" class="edge">
<title>ce&#45;&gt;compo</title>
<path fill="none" stroke="black" d="M179.65,-86.1C179.65,-76.29 179.65,-64.24 179.65,-53.24"/>
<polygon fill="black" stroke="black" points="183.15,-53.36 179.65,-43.36 176.15,-53.36 183.15,-53.36"/>
</g>
</g>
</svg>
