<?xml version="1.0" encoding="UTF-8" standalone="no"?>
<!DOCTYPE svg PUBLIC "-//W3C//DTD SVG 1.1//EN"
 "http://www.w3.org/Graphics/SVG/1.1/DTD/svg11.dtd">
<!-- Generated by graphviz version 14.1.4 (20260321.0153)
 -->
<!-- Title: ml&#45;pipeline Pages: 1 -->
<svg width="512pt" height="1166pt"
 viewBox="0.00 0.00 512.00 1166.00" xmlns="http://www.w3.org/2000/svg" xmlns:xlink="http://www.w3.org/1999/xlink">
<g id="graph0" class="graph" transform="scale(1 1) rotate(0) translate(36 1130.38)">
<title>ml&#45;pipeline</title>
<text xml:space="preserve" text-anchor="middle" x="220" y="-1078.98" font-family="Helvetica,sans-Serif" font-size="12.00">V8 ML Training Pipeline — Residual Learning</text>
<g id="clust1" class="cluster">
<title>cluster_models</title>
<polygon fill="none" stroke="#aaaaaa" stroke-dasharray="5,2" points="12,-430.5 12,-510.15 348,-510.15 348,-430.5 12,-430.5"/>
<text xml:space="preserve" text-anchor="middle" x="180" y="-494.75" font-family="Helvetica,sans-Serif" font-size="12.00">Modeles (Kaggle T4 GPU)</text>
</g>
<!-- parquet -->
<g id="node1" class="node">
<title>parquet</title>
<path fill="#e8f4fd" stroke="black" d="M254.65,-1066.95C254.65,-1069.81 228.36,-1072.13 196,-1072.13 163.64,-1072.13 137.35,-1069.81 137.35,-1066.95 137.35,-1066.95 137.35,-1020.38 137.35,-1020.38 137.35,-1017.52 163.64,-1015.2 196,-1015.2 228.36,-1015.2 254.65,-1017.52 254.65,-1020.38 254.65,-1020.38 254.65,-1066.95 254.65,-1066.95"/>
<path fill="none" stroke="black" d="M254.65,-1066.95C254.65,-1064.09 228.36,-1061.78 196,-1061.78 163.64,-1061.78 137.35,-1064.09 137.35,-1066.95"/>
<text xml:space="preserve" text-anchor="middle" x="196" y="-1046.71" font-family="Helvetica,sans-Serif" font-size="11.00">echiquiers.parquet</text>
<text xml:space="preserve" text-anchor="middle" x="196" y="-1033.21" font-family="Helvetica,sans-Serif" font-size="11.00">joueurs.parquet</text>
</g>
<!-- fe_kernel -->
<g id="node2" class="node">
<title>fe_kernel</title>
<path fill="#e8fde8" stroke="black" d="M254.65,-970.2C254.65,-970.2 137.35,-970.2 137.35,-970.2 131.35,-970.2 125.35,-964.2 125.35,-958.2 125.35,-958.2 125.35,-940.8 125.35,-940.8 125.35,-934.8 131.35,-928.8 137.35,-928.8 137.35,-928.8 254.65,-928.8 254.65,-928.8 260.65,-928.8 266.65,-934.8 266.65,-940.8 266.65,-940.8 266.65,-958.2 266.65,-958.2 266.65,-964.2 260.65,-970.2 254.65,-970.2"/>
<text xml:space="preserve" text-anchor="middle" x="196" y="-952.55" font-family="Helvetica,sans-Serif" font-size="11.00">FE Kernel 1</text>
<text xml:space="preserve" text-anchor="middle" x="196" y="-939.05" font-family="Helvetica,sans-Serif" font-size="11.00">(Kaggle P100) 196 cols</text>
</g>
<!-- parquet&#45;&gt;fe_kernel -->
<g id="edge1" class="edge">
<title>parquet&#45;&gt;fe_kernel</title>
<path fill="none" stroke="black" d="M196,-1014.76C196,-1004.44 196,-992.68 196,-982.06"/>
<polygon fill="black" stroke="black" points="199.5,-982.21 196,-972.21 192.5,-982.21 199.5,-982.21"/>
</g>
<!-- splits -->
<g id="node3" class="node">
<title>splits</title>
<path fill="#e8f4fd" stroke="black" d="M249.4,-878.63C249.4,-881.48 225.47,-883.8 196,-883.8 166.53,-883.8 142.6,-881.48 142.6,-878.63 142.6,-878.63 142.6,-832.05 142.6,-832.05 142.6,-829.19 166.53,-826.88 196,-826.88 225.47,-826.88 249.4,-829.19 249.4,-832.05 249.4,-832.05 249.4,-878.63 249.4,-878.63"/>
<path fill="none" stroke="black" d="M249.4,-878.63C249.4,-875.77 225.47,-873.45 196,-873.45 166.53,-873.45 142.6,-875.77 142.6,-878.63"/>
<text xml:space="preserve" text-anchor="middle" x="196" y="-858.39" font-family="Helvetica,sans-Serif" font-size="11.00">train / valid / test</text>
<text xml:space="preserve" text-anchor="middle" x="196" y="-844.89" font-family="Helvetica,sans-Serif" font-size="11.00">(.parquet)</text>
</g>
<!-- fe_kernel&#45;&gt;splits -->
<g id="edge2" class="edge">
<title>fe_kernel&#45;&gt;splits</title>
<path fill="none" stroke="black" d="M196,-928.5C196,-918.73 196,-906.64 196,-895.15"/>
<polygon fill="black" stroke="black" points="199.5,-895.5 196,-885.5 192.5,-895.5 199.5,-895.5"/>
</g>
<!-- baseline -->
<g id="node4" class="node">
<title>baseline</title>
<path fill="#e8fde8" stroke="black" d="M285.4,-781.88C285.4,-781.88 220.6,-781.88 220.6,-781.88 214.6,-781.88 208.6,-775.88 208.6,-769.88 208.6,-769.88 208.6,-752.48 208.6,-752.48 208.6,-746.48 214.6,-740.48 220.6,-740.48 220.6,-740.48 285.4,-740.48 285.4,-740.48 291.4,-740.48 297.4,-746.48 297.4,-752.48 297.4,-752.48 297.4,-769.88 297.4,-769.88 297.4,-775.88 291.4,-781.88 285.4,-781.88"/>
<text xml:space="preserve" text-anchor="middle" x="253" y="-764.23" font-family="Helvetica,sans-Serif" font-size="11.00">Elo Baseline</text>
<text xml:space="preserve" text-anchor="middle" x="253" y="-750.73" font-family="Helvetica,sans-Serif" font-size="11.00">baselines.py</text>
</g>
<!-- splits&#45;&gt;baseline -->
<g id="edge3" class="edge">
<title>splits&#45;&gt;baseline</title>
<path fill="none" stroke="black" d="M213.26,-826.44C219.98,-815.56 227.7,-803.09 234.53,-792.03"/>
<polygon fill="black" stroke="black" points="237.43,-794.01 239.71,-783.66 231.47,-790.32 237.43,-794.01"/>
</g>
<!-- catboost -->
<g id="node7" class="node">
<title>catboost</title>
<path fill="#fde8d0" stroke="black" d="M86.15,-479.9C86.15,-479.9 31.85,-479.9 31.85,-479.9 25.85,-479.9 19.85,-473.9 19.85,-467.9 19.85,-467.9 19.85,-450.5 19.85,-450.5 19.85,-444.5 25.85,-438.5 31.85,-438.5 31.85,-438.5 86.15,-438.5 86.15,-438.5 92.15,-438.5 98.15,-444.5 98.15,-450.5 98.15,-450.5 98.15,-467.9 98.15,-467.9 98.15,-473.9 92.15,-479.9 86.15,-479.9"/>
<text xml:space="preserve" text-anchor="middle" x="59" y="-462.25" font-family="Helvetica,sans-Serif" font-size="11.00">CatBoost</text>
<text xml:space="preserve" text-anchor="middle" x="59" y="-448.75" font-family="Helvetica,sans-Serif" font-size="11.00">MultiClass</text>
</g>
<!-- splits&#45;&gt;catboost -->
<g id="edge7" class="edge">
<title>splits&#45;&gt;catboost</title>
<path fill="none" stroke="black" d="M142.18,-851.52C84.16,-845.24 0,-825.25 0,-762.18 0,-762.18 0,-762.18 0,-571.85 0,-541.1 17.71,-510.54 33.72,-489.18"/>
<polygon fill="black" stroke="black" points="36.31,-491.55 39.72,-481.52 30.8,-487.23 36.31,-491.55"/>
</g>
<!-- xgboost -->
<g id="node8" class="node">
<title>xgboost</title>
<path fill="#fde8d0" stroke="black" d="M215.65,-479.9C215.65,-479.9 146.35,-479.9 146.35,-479.9 140.35,-479.9 134.35,-473.9 134.35,-467.9 134.35,-467.9 134.35,-450.5 134.35,-450.5 134.35,-444.5 140.35,-438.5 146.35,-438.5 146.35,-438.5 215.65,-438.5 215.65,-438.5 221.65,-438.5 227.65,-444.5 227.65,-450.5 227.65,-450.5 227.65,-467.9 227.65,-467.9 227.65,-473.9 221.65,-479.9 215.65,-479.9"/>
<text xml:space="preserve" text-anchor="middle" x="181" y="-462.25" font-family="Helvetica,sans-Serif" font-size="11.00">XGBoost</text>
<text xml:space="preserve" text-anchor="middle" x="181" y="-448.75" font-family="Helvetica,sans-Serif" font-size="11.00">multi:softprob</text>
</g>
<!-- splits&#45;&gt;xgboost -->
<g id="edge8" class="edge">
<title>splits&#45;&gt;xgboost</title>
<path fill="none" stroke="black" d="M168.33,-826.63C154.22,-809.54 140,-786.33 140,-762.18 140,-762.18 140,-762.18 140,-571.85 140,-542.92 152.28,-512.23 163.39,-490.35"/>
<polygon fill="black" stroke="black" points="166.39,-492.18 167.99,-481.71 160.2,-488.9 166.39,-492.18"/>
</g>
<!-- lgbm -->
<g id="node9" class="node">
<title>lgbm</title>
<path fill="#fde8d0" stroke="black" d="M328.4,-479.9C328.4,-479.9 275.6,-479.9 275.6,-479.9 269.6,-479.9 263.6,-473.9 263.6,-467.9 263.6,-467.9 263.6,-450.5 263.6,-450.5 263.6,-444.5 269.6,-438.5 275.6,-438.5 275.6,-438.5 328.4,-438.5 328.4,-438.5 334.4,-438.5 340.4,-444.5 340.4,-450.5 340.4,-450.5 340.4,-467.9 340.4,-467.9 340.4,-473.9 334.4,-479.9 328.4,-479.9"/>
<text xml:space="preserve" text-anchor="middle" x="302" y="-462.25" font-family="Helvetica,sans-Serif" font-size="11.00">LightGBM</text>
<text xml:space="preserve" text-anchor="middle" x="302" y="-448.75" font-family="Helvetica,sans-Serif" font-size="11.00">multiclass</text>
</g>
<!-- splits&#45;&gt;lgbm -->
<g id="edge9" class="edge">
<title>splits&#45;&gt;lgbm</title>
<path fill="none" stroke="black" d="M249.85,-845.17C321.7,-831.37 440,-802.53 440,-762.18 440,-762.18 440,-762.18 440,-571.85 440,-524.85 391.02,-494.22 351.42,-477.14"/>
<polygon fill="black" stroke="black" points="352.79,-473.92 342.21,-473.36 350.13,-480.4 352.79,-473.92"/>
</g>
<!-- draw_lookup -->
<g id="node5" class="node">
<title>draw_lookup</title>
<path fill="#e8f4fd" stroke="black" d="M310.52,-690.3C310.52,-693.16 284.74,-695.48 253,-695.48 221.26,-695.48 195.47,-693.16 195.47,-690.3 195.47,-690.3 195.47,-643.73 195.47,-643.73 195.47,-640.87 221.26,-638.55 253,-638.55 284.74,-638.55 310.52,-640.87 310.52,-643.73 310.52,-643.73 310.52,-690.3 310.52,-690.3"/>
<path fill="none" stroke="black" d="M310.52,-690.3C310.52,-687.44 284.74,-685.13 253,-685.13 221.26,-685.13 195.47,-687.44 195.47,-690.3"/>
<text xml:space="preserve" text-anchor="middle" x="253" y="-670.06" font-family="Helvetica,sans-Serif" font-size="11.00">draw_rate_lookup</text>
<text xml:space="preserve" text-anchor="middle" x="253" y="-656.56" font-family="Helvetica,sans-Serif" font-size="11.00">.parquet</text>
</g>
<!-- baseline&#45;&gt;draw_lookup -->
<g id="edge4" class="edge">
<title>baseline&#45;&gt;draw_lookup</title>
<path fill="none" stroke="black" d="M253,-740.18C253,-730.41 253,-718.31 253,-706.83"/>
<polygon fill="black" stroke="black" points="256.5,-707.18 253,-697.18 249.5,-707.18 256.5,-707.18"/>
</g>
<!-- init_scores -->
<g id="node6" class="node">
<title>init_scores</title>
<path fill="#e8fde8" stroke="black" d="M280.9,-593.55C280.9,-593.55 225.1,-593.55 225.1,-593.55 219.1,-593.55 213.1,-587.55 213.1,-581.55 213.1,-581.55 213.1,-564.15 213.1,-564.15 213.1,-558.15 219.1,-552.15 225.1,-552.15 225.1,-552.15 280.9,-552.15 280.9,-552.15 286.9,-552.15 292.9,-558.15 292.9,-564.15 292.9,-564.15 292.9,-581.55 292.9,-581.55 292.9,-587.55 286.9,-593.55 280.9,-593.55"/>
<text xml:space="preserve" text-anchor="middle" x="253" y="-575.9" font-family="Helvetica,sans-Serif" font-size="11.00">init_scores</text>
<text xml:space="preserve" text-anchor="middle" x="253" y="-562.4" font-family="Helvetica,sans-Serif" font-size="11.00">(log&#45;odds)</text>
</g>
<!-- baseline&#45;&gt;init_scores -->
<g id="edge5" class="edge">
<title>baseline&#45;&gt;init_scores</title>
<path fill="none" stroke="black" d="M287.97,-740.22C303.61,-729.23 320.42,-714.04 329,-695.48 339.61,-672.51 339.61,-661.52 329,-638.55 322.03,-623.47 309.62,-610.61 296.83,-600.42"/>
<polygon fill="black" stroke="black" points="299.29,-597.89 289.18,-594.71 295.1,-603.5 299.29,-597.89"/>
</g>
<!-- draw_lookup&#45;&gt;init_scores -->
<g id="edge6" class="edge">
<title>draw_lookup&#45;&gt;init_scores</title>
<path fill="none" stroke="black" d="M253,-638.11C253,-627.79 253,-616.03 253,-605.41"/>
<polygon fill="black" stroke="black" points="256.5,-605.56 253,-595.56 249.5,-605.56 256.5,-605.56"/>
</g>
<!-- init_scores&#45;&gt;catboost -->
<g id="edge15" class="edge">
<title>init_scores&#45;&gt;catboost</title>
<path fill="none" stroke="black" d="M212.72,-561.67C189.45,-554.77 160.19,-544.32 136.5,-530.15 117.52,-518.8 99.02,-502.37 84.86,-488.29"/>
<polygon fill="black" stroke="black" points="87.61,-486.1 78.11,-481.4 82.61,-491 87.61,-486.1"/>
<text xml:space="preserve" text-anchor="middle" x="164.25" y="-520.65" font-family="Helvetica,sans-Serif" font-size="10.00">base_margin</text>
</g>
<!-- init_scores&#45;&gt;xgboost -->
<g id="edge16" class="edge">
<title>init_scores&#45;&gt;xgboost</title>
<path fill="none" stroke="black" d="M227.24,-552.06C220.14,-545.66 212.91,-538.13 207.5,-530.15 199.5,-518.34 193.49,-503.79 189.23,-491.02"/>
<polygon fill="black" stroke="black" points="192.68,-490.34 186.38,-481.82 185.99,-492.41 192.68,-490.34"/>
<text xml:space="preserve" text-anchor="middle" x="235.25" y="-520.65" font-family="Helvetica,sans-Serif" font-size="10.00">base_margin</text>
</g>
<!-- init_scores&#45;&gt;lgbm -->
<g id="edge17" class="edge">
<title>init_scores&#45;&gt;lgbm</title>
<path fill="none" stroke="black" d="M261.76,-551.89C269.2,-534.93 280.01,-510.3 288.55,-490.84"/>
<polygon fill="black" stroke="black" points="291.73,-492.31 292.54,-481.75 285.32,-489.5 291.73,-492.31"/>
<text xml:space="preserve" text-anchor="middle" x="297.03" y="-520.65" font-family="Helvetica,sans-Serif" font-size="10.00">init_score</text>
</g>
<!-- calib -->
<g id="node10" class="node">
<title>calib</title>
<path fill="#e8fde8" stroke="black" d="M221.28,-393.5C221.28,-393.5 140.72,-393.5 140.72,-393.5 134.72,-393.5 128.72,-387.5 128.72,-381.5 128.72,-381.5 128.72,-364.1 128.72,-364.1 128.72,-358.1 134.72,-352.1 140.72,-352.1 140.72,-352.1 221.28,-352.1 221.28,-352.1 227.28,-352.1 233.28,-358.1 233.28,-364.1 233.28,-364.1 233.28,-381.5 233.28,-381.5 233.28,-387.5 227.28,-393.5 221.28,-393.5"/>
<text xml:space="preserve" text-anchor="middle" x="181" y="-375.85" font-family="Helvetica,sans-Serif" font-size="11.00">Calibration</text>
<text xml:space="preserve" text-anchor="middle" x="181" y="-362.35" font-family="Helvetica,sans-Serif" font-size="11.00">Isotonic / classe</text>
</g>
<!-- catboost&#45;&gt;calib -->
<g id="edge10" class="edge">
<title>catboost&#45;&gt;calib</title>
<path fill="none" stroke="black" d="M87.91,-438.2C104.2,-426.93 124.76,-412.71 142.41,-400.5"/>
<polygon fill="black" stroke="black" points="144.4,-403.38 150.63,-394.81 140.41,-397.62 144.4,-403.38"/>
</g>
<!-- xgboost&#45;&gt;calib -->
<g id="edge11" class="edge">
<title>xgboost&#45;&gt;calib</title>
<path fill="none" stroke="black" d="M181,-438.2C181,-428.39 181,-416.34 181,-405.34"/>
<polygon fill="black" stroke="black" points="184.5,-405.46 181,-395.46 177.5,-405.46 184.5,-405.46"/>
</g>
<!-- lgbm&#45;&gt;calib -->
<g id="edge12" class="edge">
<title>lgbm&#45;&gt;calib</title>
<path fill="none" stroke="black" d="M273.32,-438.2C257.17,-426.93 236.78,-412.71 219.27,-400.5"/>
<polygon fill="black" stroke="black" points="221.33,-397.67 211.13,-394.82 217.33,-403.41 221.33,-397.67"/>
</g>
<!-- gate -->
<g id="node11" class="node">
<title>gate</title>
<path fill="#fdeaea" stroke="black" d="M170.08,-302.12C170.08,-302.12 71.62,-257.18 71.62,-257.18 66.16,-254.69 66.16,-249.71 71.62,-247.22 71.62,-247.22 170.08,-202.28 170.08,-202.28 175.54,-199.79 186.46,-199.79 191.92,-202.28 191.92,-202.28 290.38,-247.22 290.38,-247.22 295.84,-249.71 295.84,-254.69 290.38,-257.18 290.38,-257.18 191.92,-302.12 191.92,-302.12 186.46,-304.61 175.54,-304.61 170.08,-302.12"/>
<text xml:space="preserve" text-anchor="middle" x="181" y="-262" font-family="Helvetica,sans-Serif" font-size="11.00">Quality Gate</text>
<text xml:space="preserve" text-anchor="middle" x="181" y="-248.5" font-family="Helvetica,sans-Serif" font-size="11.00">9 conditions</text>
<text xml:space="preserve" text-anchor="middle" x="181" y="-235" font-family="Helvetica,sans-Serif" font-size="11.00">(recall_draw &gt; 1%)</text>
</g>
<!-- calib&#45;&gt;gate -->
<g id="edge13" class="edge">
<title>calib&#45;&gt;gate</title>
<path fill="none" stroke="black" d="M181,-351.68C181,-342.42 181,-330.84 181,-318.92"/>
<polygon fill="black" stroke="black" points="184.5,-318.95 181,-308.95 177.5,-318.95 184.5,-318.95"/>
</g>
<!-- artifacts -->
<g id="node12" class="node">
<title>artifacts</title>
<path fill="#f0e8fd" stroke="black" d="M213.78,-141.3C213.78,-141.3 148.22,-141.3 148.22,-141.3 142.22,-141.3 136.22,-135.3 136.22,-129.3 136.22,-129.3 136.22,-98.4 136.22,-98.4 136.22,-92.4 142.22,-86.4 148.22,-86.4 148.22,-86.4 213.78,-86.4 213.78,-86.4 219.78,-86.4 225.78,-92.4 225.78,-98.4 225.78,-98.4 225.78,-129.3 225.78,-129.3 225.78,-135.3 219.78,-141.3 213.78,-141.3"/>
<text xml:space="preserve" text-anchor="middle" x="181" y="-123.65" font-family="Helvetica,sans-Serif" font-size="11.00">Artefacts</text>
<text xml:space="preserve" text-anchor="middle" x="181" y="-110.15" font-family="Helvetica,sans-Serif" font-size="11.00">.cbm/.ubj/.txt</text>
<text xml:space="preserve" text-anchor="middle" x="181" y="-96.65" font-family="Helvetica,sans-Serif" font-size="11.00">+ calibrators</text>
</g>
<!-- gate&#45;&gt;artifacts -->
<g id="edge18" class="edge">
<title>gate&#45;&gt;artifacts</title>
<path fill="none" stroke="black" d="M181,-196.92C181,-182.21 181,-166.61 181,-153"/>
<polygon fill="black" stroke="black" points="184.5,-153.14 181,-143.14 177.5,-153.14 184.5,-153.14"/>
<text xml:space="preserve" text-anchor="middle" x="194.12" y="-165.8" font-family="Helvetica,sans-Serif" font-size="10.00">PASS</text>
</g>
<!-- hf_hub -->
<g id="node13" class="node">
<title>hf_hub</title>
<path fill="#f0f0f0" stroke="black" d="M231.03,-41.4C231.03,-41.4 130.97,-41.4 130.97,-41.4 124.97,-41.4 118.97,-35.4 118.97,-29.4 118.97,-29.4 118.97,-12 118.97,-12 118.97,-6 124.97,0 130.97,0 130.97,0 231.03,0 231.03,0 237.03,0 243.03,-6 243.03,-12 243.03,-12 243.03,-29.4 243.03,-29.4 243.03,-35.4 237.03,-41.4 231.03,-41.4"/>
<text xml:space="preserve" text-anchor="middle" x="181" y="-23.75" font-family="Helvetica,sans-Serif" font-size="11.00">HF Hub</text>
<text xml:space="preserve" text-anchor="middle" x="181" y="-10.25" font-family="Helvetica,sans-Serif" font-size="11.00">Pierrax/alice&#45;engine</text>
</g>
<!-- artifacts&#45;&gt;hf_hub -->
<g id="edge14" class="edge">
<title>artifacts&#45;&gt;hf_hub</title>
<path fill="none" stroke="black" d="M181,-85.99C181,-75.69 181,-63.85 181,-53.15"/>
<polygon fill="black" stroke="black" points="184.5,-53.22 181,-43.22 177.5,-53.22 184.5,-53.22"/>
</g>
</g>
</svg>
