<?xml version="1.0" encoding="UTF-8" standalone="no"?>
<!DOCTYPE svg PUBLIC "-//W3C//DTD SVG 1.1//EN"
 "http://www.w3.org/Graphics/SVG/1.1/DTD/svg11.dtd">
<!-- Generated by graphviz version 14.1.4 (20260321.0153)
 -->
<!-- Title: system&#45;architecture Pages: 1 -->
<svg width="645pt" height="1092pt"
 viewBox="0.00 0.00 645.00 1092.00" xmlns="http://www.w3.org/2000/svg" xmlns:xlink="http://www.w3.org/1999/xlink">
<g id="graph0" class="graph" transform="scale(1 1) rotate(0) translate(36 1055.85)">
<title>system&#45;architecture</title>
<text xml:space="preserve" text-anchor="middle" x="286.5" y="-1004.45" font-family="Helvetica,sans-Serif" font-size="12.00">Alice Engine — Architecture Systeme (5 phases)</text>
<g id="clust1" class="cluster">
<title>cluster_sources</title>
<polygon fill="#f8fbff" stroke="#aaaacc" points="62,-614.5 62,-694.15 496,-694.15 496,-614.5 62,-614.5"/>
<text xml:space="preserve" text-anchor="middle" x="279" y="-678.75" font-family="Helvetica,sans-Serif" font-size="12.00">Sources de donnees</text>
</g>
<g id="clust2" class="cluster">
<title>cluster_p1</title>
<polygon fill="#fff8f0" stroke="#ccaaaa" points="117,-728.15 117,-989.6 441,-989.6 441,-728.15 117,-728.15"/>
<text xml:space="preserve" text-anchor="middle" x="279" y="-974.2" font-family="Helvetica,sans-Serif" font-size="12.00">Phase 1 — V8 ML (Training)</text>
</g>
<g id="clust3" class="cluster">
<title>cluster_p2</title>
<polygon fill="#f0fff0" stroke="#aaccaa" points="259,-308 259,-489.57 442,-489.57 442,-308 259,-308"/>
<text xml:space="preserve" text-anchor="middle" x="350.5" y="-474.17" font-family="Helvetica,sans-Serif" font-size="12.00">Phase 2 — Feature Store + API</text>
</g>
<g id="clust4" class="cluster">
<title>cluster_p3</title>
<polygon fill="#f0f8ff" stroke="#aaaacc" points="202,-208.05 202,-282.3 462,-282.3 462,-208.05 202,-208.05"/>
<text xml:space="preserve" text-anchor="middle" x="332" y="-266.9" font-family="Helvetica,sans-Serif" font-size="12.00">Phase 3 — ALI (Adversarial Lineup Inference)</text>
</g>
<g id="clust5" class="cluster">
<title>cluster_p4</title>
<polygon fill="#fff0ff" stroke="#ccaacc" points="332,-8 332,-171.35 565,-171.35 565,-8 332,-8"/>
<text xml:space="preserve" text-anchor="middle" x="448.5" y="-155.95" font-family="Helvetica,sans-Serif" font-size="12.00">Phase 4 — CE V9 (Composition Engine)</text>
</g>
<g id="clust6" class="cluster">
<title>cluster_p5</title>
<polygon fill="#f8f8f0" stroke="#ccccaa" points="8,-94.4 8,-285 194,-285 194,-94.4 8,-94.4"/>
<text xml:space="preserve" text-anchor="middle" x="101" y="-269.6" font-family="Helvetica,sans-Serif" font-size="12.00">Phase 5 — Deploy (Oracle VM)</text>
</g>
<!-- ffe_scrapper -->
<g id="node1" class="node">
<title>ffe_scrapper</title>
<path fill="#f0f0f0" stroke="black" d="M476.15,-663.9C476.15,-663.9 391.85,-663.9 391.85,-663.9 385.85,-663.9 379.85,-657.9 379.85,-651.9 379.85,-651.9 379.85,-634.5 379.85,-634.5 379.85,-628.5 385.85,-622.5 391.85,-622.5 391.85,-622.5 476.15,-622.5 476.15,-622.5 482.15,-622.5 488.15,-628.5 488.15,-634.5 488.15,-634.5 488.15,-651.9 488.15,-651.9 488.15,-657.9 482.15,-663.9 476.15,-663.9"/>
<text xml:space="preserve" text-anchor="middle" x="434" y="-646.25" font-family="Helvetica,sans-Serif" font-size="11.00">FFE Scrapper</text>
<text xml:space="preserve" text-anchor="middle" x="434" y="-632.75" font-family="Helvetica,sans-Serif" font-size="11.00">(ffe&#45;history repo)</text>
</g>
<!-- parquet2 -->
<g id="node4" class="node">
<title>parquet2</title>
<path fill="#e8f4fd" stroke="black" d="M457.65,-572.32C457.65,-575.18 431.36,-577.5 399,-577.5 366.64,-577.5 340.35,-575.18 340.35,-572.32 340.35,-572.32 340.35,-525.75 340.35,-525.75 340.35,-522.89 366.64,-520.57 399,-520.57 431.36,-520.57 457.65,-522.89 457.65,-525.75 457.65,-525.75 457.65,-572.32 457.65,-572.32"/>
<path fill="none" stroke="black" d="M457.65,-572.32C457.65,-569.47 431.36,-567.15 399,-567.15 366.64,-567.15 340.35,-569.47 340.35,-572.32"/>
<text xml:space="preserve" text-anchor="middle" x="399" y="-552.09" font-family="Helvetica,sans-Serif" font-size="11.00">echiquiers.parquet</text>
<text xml:space="preserve" text-anchor="middle" x="399" y="-538.59" font-family="Helvetica,sans-Serif" font-size="11.00">joueurs.parquet</text>
</g>
<!-- ffe_scrapper&#45;&gt;parquet2 -->
<g id="edge1" class="edge">
<title>ffe_scrapper&#45;&gt;parquet2</title>
<path fill="none" stroke="black" d="M426.41,-622.2C422.62,-612.23 417.91,-599.83 413.47,-588.14"/>
<polygon fill="black" stroke="black" points="416.86,-587.21 410.04,-579.1 410.32,-589.69 416.86,-587.21"/>
</g>
<!-- hf_dataset -->
<g id="node2" class="node">
<title>hf_dataset</title>
<path fill="#f0f0f0" stroke="black" d="M331.77,-663.9C331.77,-663.9 242.22,-663.9 242.22,-663.9 236.22,-663.9 230.22,-657.9 230.22,-651.9 230.22,-651.9 230.22,-634.5 230.22,-634.5 230.22,-628.5 236.22,-622.5 242.22,-622.5 242.22,-622.5 331.77,-622.5 331.77,-622.5 337.77,-622.5 343.77,-628.5 343.77,-634.5 343.77,-634.5 343.77,-651.9 343.77,-651.9 343.77,-657.9 337.77,-663.9 331.77,-663.9"/>
<text xml:space="preserve" text-anchor="middle" x="287" y="-646.25" font-family="Helvetica,sans-Serif" font-size="11.00">HF Hub</text>
<text xml:space="preserve" text-anchor="middle" x="287" y="-632.75" font-family="Helvetica,sans-Serif" font-size="11.00">Pierrax/ffe&#45;history</text>
</g>
<!-- hf_dataset&#45;&gt;parquet2 -->
<g id="edge2" class="edge">
<title>hf_dataset&#45;&gt;parquet2</title>
<path fill="none" stroke="black" d="M311.3,-622.2C324.53,-611.32 341.28,-597.53 356.59,-584.94"/>
<polygon fill="black" stroke="black" points="358.73,-587.71 364.23,-578.65 354.28,-582.3 358.73,-587.71"/>
</g>
<!-- hf_model -->
<g id="node3" class="node">
<title>hf_model</title>
<path fill="#f0f0f0" stroke="black" d="M182.03,-663.9C182.03,-663.9 81.97,-663.9 81.97,-663.9 75.97,-663.9 69.97,-657.9 69.97,-651.9 69.97,-651.9 69.97,-634.5 69.97,-634.5 69.97,-628.5 75.97,-622.5 81.97,-622.5 81.97,-622.5 182.03,-622.5 182.03,-622.5 188.03,-622.5 194.03,-628.5 194.03,-634.5 194.03,-634.5 194.03,-651.9 194.03,-651.9 194.03,-657.9 188.03,-663.9 182.03,-663.9"/>
<text xml:space="preserve" text-anchor="middle" x="132" y="-646.25" font-family="Helvetica,sans-Serif" font-size="11.00">HF Hub</text>
<text xml:space="preserve" text-anchor="middle" x="132" y="-632.75" font-family="Helvetica,sans-Serif" font-size="11.00">Pierrax/alice&#45;engine</text>
</g>
<!-- fstore -->
<g id="node8" class="node">
<title>fstore</title>
<path fill="#e8f4fd" stroke="black" d="M419.52,-454.15C419.52,-457.01 388.36,-459.32 350,-459.32 311.64,-459.32 280.48,-457.01 280.48,-454.15 280.48,-454.15 280.48,-407.57 280.48,-407.57 280.48,-404.72 311.64,-402.4 350,-402.4 388.36,-402.4 419.52,-404.72 419.52,-407.57 419.52,-407.57 419.52,-454.15 419.52,-454.15"/>
<path fill="none" stroke="black" d="M419.52,-454.15C419.52,-451.29 388.36,-448.98 350,-448.98 311.64,-448.98 280.48,-451.29 280.48,-454.15"/>
<text xml:space="preserve" text-anchor="middle" x="350" y="-433.91" font-family="Helvetica,sans-Serif" font-size="11.00">Feature Store</text>
<text xml:space="preserve" text-anchor="middle" x="350" y="-420.41" font-family="Helvetica,sans-Serif" font-size="11.00">(parquets pre&#45;calcules)</text>
</g>
<!-- hf_model&#45;&gt;fstore -->
<g id="edge6" class="edge">
<title>hf_model&#45;&gt;fstore</title>
<path fill="none" stroke="black" d="M152.9,-622.03C189.82,-586.41 267.02,-511.93 313.08,-467.48"/>
<polygon fill="black" stroke="black" points="315.45,-470.06 320.21,-460.6 310.59,-465.03 315.45,-470.06"/>
</g>
<!-- fe -->
<g id="node5" class="node">
<title>fe</title>
<path fill="#e8fde8" stroke="black" d="M382.77,-959.35C382.77,-959.35 251.22,-959.35 251.22,-959.35 245.22,-959.35 239.22,-953.35 239.22,-947.35 239.22,-947.35 239.22,-935.35 239.22,-935.35 239.22,-929.35 245.22,-923.35 251.22,-923.35 251.22,-923.35 382.77,-923.35 382.77,-923.35 388.77,-923.35 394.77,-929.35 394.77,-935.35 394.77,-935.35 394.77,-947.35 394.77,-947.35 394.77,-953.35 388.77,-959.35 382.77,-959.35"/>
<text xml:space="preserve" text-anchor="middle" x="317" y="-937.65" font-family="Helvetica,sans-Serif" font-size="11.00">FE Kernel 1 / 196 features</text>
</g>
<!-- parquet2&#45;&gt;fe -->
<g id="edge3" class="edge">
<title>parquet2&#45;&gt;fe</title>
<path fill="none" stroke="black" d="M457.99,-563.11C497.75,-575.81 543,-599.61 543,-642.2 543,-858.65 543,-858.65 543,-858.65 543,-889.1 469.51,-911.39 406.34,-924.93"/>
<polygon fill="black" stroke="black" points="405.65,-921.49 396.57,-926.96 407.08,-928.35 405.65,-921.49"/>
</g>
<!-- parquet2&#45;&gt;fstore -->
<g id="edge8" class="edge">
<title>parquet2&#45;&gt;fstore</title>
<path fill="none" stroke="black" d="M387.26,-520.21C380.9,-505.12 372.94,-486.26 366.02,-469.84"/>
<polygon fill="black" stroke="black" points="369.34,-468.71 362.23,-460.86 362.89,-471.43 369.34,-468.71"/>
</g>
<!-- ml -->
<g id="node6" class="node">
<title>ml</title>
<path fill="#fde8d0" stroke="black" d="M367.9,-878.35C367.9,-878.35 246.1,-878.35 246.1,-878.35 240.1,-878.35 234.1,-872.35 234.1,-866.35 234.1,-866.35 234.1,-848.95 234.1,-848.95 234.1,-842.95 240.1,-836.95 246.1,-836.95 246.1,-836.95 367.9,-836.95 367.9,-836.95 373.9,-836.95 379.9,-842.95 379.9,-848.95 379.9,-848.95 379.9,-866.35 379.9,-866.35 379.9,-872.35 373.9,-878.35 367.9,-878.35"/>
<text xml:space="preserve" text-anchor="middle" x="307" y="-860.7" font-family="Helvetica,sans-Serif" font-size="11.00">CatBoost / XGB / LGBM</text>
<text xml:space="preserve" text-anchor="middle" x="307" y="-847.2" font-family="Helvetica,sans-Serif" font-size="11.00">Residual Learning</text>
</g>
<!-- fe&#45;&gt;ml -->
<g id="edge4" class="edge">
<title>fe&#45;&gt;ml</title>
<path fill="none" stroke="black" d="M314.88,-923.02C313.7,-913.43 312.21,-901.21 310.84,-890"/>
<polygon fill="black" stroke="black" points="314.34,-889.84 309.65,-880.33 307.4,-890.69 314.34,-889.84"/>
</g>
<!-- qg -->
<g id="node7" class="node">
<title>qg</title>
<path fill="#fdeaea" stroke="black" d="M267.19,-789.81C267.19,-789.81 136.76,-766.19 136.76,-766.19 130.85,-765.12 130.85,-762.98 136.76,-761.91 136.76,-761.91 267.19,-738.29 267.19,-738.29 273.1,-737.22 284.9,-737.22 290.81,-738.29 290.81,-738.29 421.24,-761.91 421.24,-761.91 427.15,-762.98 427.15,-765.12 421.24,-766.19 421.24,-766.19 290.81,-789.81 290.81,-789.81 284.9,-790.88 273.1,-790.88 267.19,-789.81"/>
<text xml:space="preserve" text-anchor="middle" x="279" y="-760.35" font-family="Helvetica,sans-Serif" font-size="11.00">Quality Gate / 9 conditions</text>
</g>
<!-- ml&#45;&gt;qg -->
<g id="edge5" class="edge">
<title>ml&#45;&gt;qg</title>
<path fill="none" stroke="black" d="M300.92,-836.77C297.77,-826.46 293.82,-813.53 290.14,-801.5"/>
<polygon fill="black" stroke="black" points="293.59,-800.8 287.32,-792.26 286.89,-802.84 293.59,-800.8"/>
</g>
<!-- qg&#45;&gt;hf_model -->
<g id="edge14" class="edge">
<title>qg&#45;&gt;hf_model</title>
<path fill="none" stroke="black" d="M251.35,-740.7C226.95,-720.97 191.32,-692.16 165.34,-671.16"/>
<polygon fill="black" stroke="black" points="167.75,-668.6 157.77,-665.04 163.35,-674.04 167.75,-668.6"/>
<text xml:space="preserve" text-anchor="middle" x="227.43" y="-704.65" font-family="Helvetica,sans-Serif" font-size="10.00">PASS</text>
</g>
<!-- api2 -->
<g id="node9" class="node">
<title>api2</title>
<path fill="#e8fde8" stroke="black" d="M402.27,-357.4C402.27,-357.4 297.73,-357.4 297.73,-357.4 291.73,-357.4 285.73,-351.4 285.73,-345.4 285.73,-345.4 285.73,-328 285.73,-328 285.73,-322 291.73,-316 297.73,-316 297.73,-316 402.27,-316 402.27,-316 408.27,-316 414.27,-322 414.27,-328 414.27,-328 414.27,-345.4 414.27,-345.4 414.27,-351.4 408.27,-357.4 402.27,-357.4"/>
<text xml:space="preserve" text-anchor="middle" x="350" y="-339.75" font-family="Helvetica,sans-Serif" font-size="11.00">FastAPI</text>
<text xml:space="preserve" text-anchor="middle" x="350" y="-326.25" font-family="Helvetica,sans-Serif" font-size="11.00">POST /api/v1/predict</text>
</g>
<!-- fstore&#45;&gt;api2 -->
<g id="edge7" class="edge">
<title>fstore&#45;&gt;api2</title>
<path fill="none" stroke="black" d="M350,-401.96C350,-391.64 350,-379.88 350,-369.26"/>
<polygon fill="black" stroke="black" points="353.5,-369.41 350,-359.41 346.5,-369.41 353.5,-369.41"/>
</g>
<!-- ali -->
<g id="node10" class="node">
<title>ali</title>
<path fill="#e8fde8" stroke="black" d="M422.15,-252.05C422.15,-252.05 277.85,-252.05 277.85,-252.05 271.85,-252.05 265.85,-246.05 265.85,-240.05 265.85,-240.05 265.85,-228.05 265.85,-228.05 265.85,-222.05 271.85,-216.05 277.85,-216.05 277.85,-216.05 422.15,-216.05 422.15,-216.05 428.15,-216.05 434.15,-222.05 434.15,-228.05 434.15,-228.05 434.15,-240.05 434.15,-240.05 434.15,-246.05 428.15,-252.05 422.15,-252.05"/>
<text xml:space="preserve" text-anchor="middle" x="350" y="-230.35" font-family="Helvetica,sans-Serif" font-size="11.00">ALI / 20 scenarios adversaire</text>
</g>
<!-- api2&#45;&gt;ali -->
<g id="edge9" class="edge">
<title>api2&#45;&gt;ali</title>
<path fill="none" stroke="black" d="M350,-315.81C350,-300.97 350,-280.47 350,-263.83"/>
<polygon fill="black" stroke="black" points="353.5,-264.05 350,-254.05 346.5,-264.05 353.5,-264.05"/>
</g>
<!-- ce2 -->
<g id="node11" class="node">
<title>ce2</title>
<path fill="#e8fde8" stroke="black" d="M506.65,-141.1C506.65,-141.1 389.35,-141.1 389.35,-141.1 383.35,-141.1 377.35,-135.1 377.35,-129.1 377.35,-129.1 377.35,-117.1 377.35,-117.1 377.35,-111.1 383.35,-105.1 389.35,-105.1 389.35,-105.1 506.65,-105.1 506.65,-105.1 512.65,-105.1 518.65,-111.1 518.65,-117.1 518.65,-117.1 518.65,-129.1 518.65,-129.1 518.65,-135.1 512.65,-141.1 506.65,-141.1"/>
<text xml:space="preserve" text-anchor="middle" x="448" y="-119.4" font-family="Helvetica,sans-Serif" font-size="11.00">OR&#45;Tools / Multi&#45;equipe</text>
</g>
<!-- api2&#45;&gt;ce2 -->
<g id="edge10" class="edge">
<title>api2&#45;&gt;ce2</title>
<path fill="none" stroke="black" d="M414.54,-322.2C434.44,-314.68 454.21,-303.02 466,-285 492.52,-244.46 475.18,-185.58 461.01,-151.43"/>
<polygon fill="black" stroke="black" points="464.38,-150.42 457.18,-142.65 457.97,-153.22 464.38,-150.42"/>
</g>
<!-- oracle -->
<g id="node13" class="node">
<title>oracle</title>
<path fill="#f0f0f0" stroke="black" d="M173.9,-254.75C173.9,-254.75 28.1,-254.75 28.1,-254.75 22.1,-254.75 16.1,-248.75 16.1,-242.75 16.1,-242.75 16.1,-225.35 16.1,-225.35 16.1,-219.35 22.1,-213.35 28.1,-213.35 28.1,-213.35 173.9,-213.35 173.9,-213.35 179.9,-213.35 185.9,-219.35 185.9,-225.35 185.9,-225.35 185.9,-242.75 185.9,-242.75 185.9,-248.75 179.9,-254.75 173.9,-254.75"/>
<text xml:space="preserve" text-anchor="middle" x="101" y="-237.1" font-family="Helvetica,sans-Serif" font-size="11.00">Oracle Always Free</text>
<text xml:space="preserve" text-anchor="middle" x="101" y="-223.6" font-family="Helvetica,sans-Serif" font-size="11.00">4 OCPUs ARM / 24 GB RAM</text>
</g>
<!-- api2&#45;&gt;oracle -->
<g id="edge12" class="edge">
<title>api2&#45;&gt;oracle</title>
<path fill="none" stroke="black" d="M285.23,-317.73C256.52,-309.02 222.62,-297.69 193,-285 176.56,-277.95 159.16,-268.94 143.96,-260.51"/>
<polygon fill="black" stroke="black" points="146.08,-257.69 135.65,-255.83 142.65,-263.79 146.08,-257.69"/>
</g>
<!-- ali&#45;&gt;ce2 -->
<g id="edge15" class="edge">
<title>ali&#45;&gt;ce2</title>
<path fill="none" stroke="black" d="M365.31,-216.03C381.26,-198.3 406.42,-170.32 424.81,-149.88"/>
<polygon fill="black" stroke="black" points="427.37,-152.26 431.46,-142.49 422.17,-147.58 427.37,-152.26"/>
<text xml:space="preserve" text-anchor="middle" x="423.81" y="-181.85" font-family="Helvetica,sans-Serif" font-size="10.00">20 scenarios</text>
</g>
<!-- out -->
<g id="node12" class="node">
<title>out</title>
<path fill="#f0e8fd" stroke="black" d="M502.15,-57.4C502.15,-57.4 393.85,-57.4 393.85,-57.4 387.85,-57.4 381.85,-51.4 381.85,-45.4 381.85,-45.4 381.85,-28 381.85,-28 381.85,-22 387.85,-16 393.85,-16 393.85,-16 502.15,-16 502.15,-16 508.15,-16 514.15,-22 514.15,-28 514.15,-28 514.15,-45.4 514.15,-45.4 514.15,-51.4 508.15,-57.4 502.15,-57.4"/>
<text xml:space="preserve" text-anchor="middle" x="448" y="-39.75" font-family="Helvetica,sans-Serif" font-size="11.00">Composition optimale</text>
<text xml:space="preserve" text-anchor="middle" x="448" y="-26.25" font-family="Helvetica,sans-Serif" font-size="11.00">+ E[score]</text>
</g>
<!-- ce2&#45;&gt;out -->
<g id="edge11" class="edge">
<title>ce2&#45;&gt;out</title>
<path fill="none" stroke="black" d="M436.81,-104.61C434.64,-94.4 434,-81.21 434.89,-69.24"/>
<polygon fill="black" stroke="black" points="438.36,-69.69 436.11,-59.34 431.41,-68.83 438.36,-69.69"/>
</g>
<!-- ce2&#45;&gt;out -->
<g id="edge13" class="edge">
<title>ce2&#45;&gt;out</title>
<path fill="none" stroke="black" d="M459.19,-104.61C461.36,-94.4 462,-81.21 461.11,-69.24"/>
<polygon fill="black" stroke="black" points="464.59,-68.83 459.89,-59.34 457.64,-69.69 464.59,-68.83"/>
</g>
<!-- vercel -->
<g id="node14" class="node">
<title>vercel</title>
<path fill="#f0f0f0" stroke="black" d="M148.4,-143.8C148.4,-143.8 53.6,-143.8 53.6,-143.8 47.6,-143.8 41.6,-137.8 41.6,-131.8 41.6,-131.8 41.6,-114.4 41.6,-114.4 41.6,-108.4 47.6,-102.4 53.6,-102.4 53.6,-102.4 148.4,-102.4 148.4,-102.4 154.4,-102.4 160.4,-108.4 160.4,-114.4 160.4,-114.4 160.4,-131.8 160.4,-131.8 160.4,-137.8 154.4,-143.8 148.4,-143.8"/>
<text xml:space="preserve" text-anchor="middle" x="101" y="-126.15" font-family="Helvetica,sans-Serif" font-size="11.00">Vercel (chess&#45;app)</text>
<text xml:space="preserve" text-anchor="middle" x="101" y="-112.65" font-family="Helvetica,sans-Serif" font-size="11.00">Next.js frontend</text>
</g>
<!-- oracle&#45;&gt;vercel -->
<g id="edge16" class="edge">
<title>oracle&#45;&gt;vercel</title>
<path fill="none" stroke="black" d="M101,-213.07C101,-196.94 101,-173.97 101,-155.4"/>
<polygon fill="black" stroke="black" points="104.5,-155.47 101,-145.47 97.5,-155.47 104.5,-155.47"/>
<text xml:space="preserve" text-anchor="middle" x="117.5" y="-181.85" font-family="Helvetica,sans-Serif" font-size="10.00">HTTPS</text>
</g>
</g>
</svg>
